<?xml version="1.0" encoding="utf-8"?>
<!-- Generator: Adobe Illustrator 19.2.1, SVG Export Plug-In . SVG Version: 6.00 Build 0)  -->
<svg version="1.1" id="Layer_1" xmlns="http://www.w3.org/2000/svg" xmlns:xlink="http://www.w3.org/1999/xlink" x="0px" y="0px"
	 viewBox="0 0 21.8 21.8" style="enable-background:new 0 0 21.8 21.8;" xml:space="preserve">
<style type="text/css">
	.st0{fill:#FFFFFF;}
</style>
<g id="XMLID_11_">
	<g id="XMLID_231_">
		<g id="XMLID_263_">
			<path id="XMLID_268_" class="st0" d="M10.9,2c2.9,0,3.3,0,4.4,0.1c1.1,0,1.6,0.2,2,0.4c0.5,0.2,0.9,0.4,1.3,0.8s0.6,0.7,0.8,1.3
				c0.1,0.4,0.3,1,0.4,2c0.1,1.1,0.1,1.5,0.1,4.4s0,3.3-0.1,4.4c0,1.1-0.2,1.6-0.4,2c-0.2,0.5-0.4,0.9-0.8,1.3s-0.7,0.6-1.3,0.8
				c-0.4,0.1-1,0.3-2,0.4c-1.1,0.1-1.5,0.1-4.4,0.1s-3.3,0-4.4-0.1c-1.1,0-1.6-0.2-2-0.4c-0.5-0.2-0.9-0.4-1.3-0.8s-0.6-0.7-0.8-1.3
				c-0.1-0.4-0.3-1-0.4-2C2,14.1,2,13.8,2,10.9S2,7.6,2,6.5c0-1.1,0.2-1.6,0.4-2C2.6,4,2.8,3.6,3.2,3.2C3.6,2.8,4,2.6,4.5,2.4
				c0.4-0.1,1-0.3,2-0.4C7.6,2,8,2,10.9,2 M10.9,0c-3,0-3.3,0-4.5,0.1C5.2,0.1,4.4,0.3,3.8,0.6C3,0.9,2.4,1.2,1.8,1.8
				C1.2,2.4,0.9,3,0.6,3.8C0.3,4.4,0.1,5.2,0.1,6.4C0,7.6,0,7.9,0,10.9s0,3.3,0.1,4.5c0.1,1.2,0.2,2,0.5,2.6
				c0.3,0.7,0.7,1.3,1.3,1.9c0.6,0.6,1.2,1,1.9,1.3c0.7,0.3,1.5,0.5,2.6,0.5c1.2,0.1,1.5,0.1,4.5,0.1s3.3,0,4.5-0.1
				c1.2-0.1,2-0.2,2.6-0.5c0.7-0.3,1.3-0.7,1.9-1.3c0.6-0.6,1-1.2,1.3-1.9c0.3-0.7,0.5-1.5,0.5-2.6c0.1-1.2,0.1-1.5,0.1-4.5
				s0-3.3-0.1-4.5c-0.1-1.2-0.2-2-0.5-2.6C20.9,3,20.6,2.4,20,1.8c-0.6-0.6-1.2-1-1.9-1.3c-0.7-0.3-1.5-0.5-2.6-0.5
				C14.2,0,13.8,0,10.9,0L10.9,0z"/>
			<path id="XMLID_265_" class="st0" d="M10.9,5.3c-3.1,0-5.6,2.5-5.6,5.6s2.5,5.6,5.6,5.6s5.6-2.5,5.6-5.6S14,5.3,10.9,5.3z
				 M10.9,14.5c-2,0-3.6-1.6-3.6-3.6s1.6-3.6,3.6-3.6s3.6,1.6,3.6,3.6S12.9,14.5,10.9,14.5z"/>
			<circle id="XMLID_264_" class="st0" cx="16.7" cy="5.1" r="1.3"/>
		</g>
	</g>
</g>
</svg>
