<?xml version="1.0" encoding="utf-8"?>
<!-- Generator: Adobe Illustrator 19.2.1, SVG Export Plug-In . SVG Version: 6.00 Build 0)  -->
<svg version="1.1" id="Layer_1" xmlns="http://www.w3.org/2000/svg" xmlns:xlink="http://www.w3.org/1999/xlink" x="0px" y="0px"
	 viewBox="0 0 35 33.7" style="enable-background:new 0 0 35 33.7;" xml:space="preserve">
<style type="text/css">
	.st0{fill:#FFFFFF;}
</style>
<g>
	<path class="st0" d="M32.6,31.3c0.7-0.7,1.2-1.4,1.6-2.4c0.3-0.7,0.6-1.8,0.7-3.8c0.1-2.2,0.1-2.8,0.1-8.3c0-5.5,0-6.1-0.1-8.3
		c-0.1-2-0.4-3.1-0.7-3.8c-0.4-1-0.9-1.6-1.6-2.4c-0.7-0.7-1.5-1.2-2.5-1.5c-0.8-0.3-1.9-0.6-4-0.7C23.9,0,23.2,0,17.5,0
		c-5.7,0-6.4,0-8.6,0.1c-2.1,0.1-3.2,0.4-4,0.7c-1,0.4-1.7,0.8-2.5,1.5C1.7,3.1,1.2,3.8,0.9,4.7C0.6,5.4,0.2,6.5,0.1,8.5
		C0,10.7,0,11.4,0,16.8c0,5.5,0,6.1,0.1,8.3c0.1,2,0.4,3.1,0.7,3.8c0.4,1,0.9,1.6,1.6,2.4c0.7,0.7,1.5,1.2,2.5,1.5
		c0.8,0.3,1.9,0.6,4,0.7c2.3,0.1,2.9,0.1,8.6,0.1s6.4,0,8.6-0.1c2.1-0.1,3.2-0.4,4-0.7C31.1,32.5,31.9,32,32.6,31.3z M17.5,27.4
		c-6.1,0-11-4.7-11-10.5c0-5.8,4.9-10.5,11-10.5c6.1,0,11,4.7,11,10.5C28.5,22.7,23.6,27.4,17.5,27.4z M26.4,5.9
		c0-1.4,1.1-2.5,2.6-2.5c1.4,0,2.6,1.1,2.6,2.5c0,1.4-1.1,2.5-2.6,2.5C27.5,8.3,26.4,7.2,26.4,5.9z"/>
	<ellipse class="st0" cx="17.5" cy="16.8" rx="7.1" ry="6.8"/>
</g>
</svg>
