<?xml version="1.0" encoding="utf-8"?>
<!-- Generator: Adobe Illustrator 19.0.0, SVG Export Plug-In . SVG Version: 6.00 Build 0)  -->
<svg version="1.1" id="Layer_1" xmlns="http://www.w3.org/2000/svg" xmlns:xlink="http://www.w3.org/1999/xlink" x="0px" y="0px"
	 viewBox="0 0 106 104" style="enable-background:new 0 0 106 104;" xml:space="preserve">
<style type="text/css">
	.st0{fill:#FFC600;}
	.st1{fill:#6BA537;}
	.st2{fill:#6AA9DC;}
	.st3{font-family:bebas-neue, sans-serif;}
	.st4{font-size:56.6969px;}
</style>
<g id="XMLID_37_">
	<path id="XMLID_28_" class="st0" d="M16.494,43.01L2.276,39.236C6.078,24.915,15.847,12.89,29.08,6.243
		c12.356-6.207,26.393-7.228,39.513-2.881C81.72,7.711,92.367,16.91,98.573,29.267c0.353,0.702,0.688,1.409,1.005,2.118
		L86.139,37.37c-0.224-0.503-0.463-1.004-0.712-1.502c-4.442-8.845-12.064-15.43-21.46-18.543
		c-9.392-3.112-19.441-2.382-28.286,2.063C26.209,24.146,19.215,32.755,16.494,43.01z"/>
	<polygon id="XMLID_31_" class="st0" points="105.704,27.621 97.672,46.363 78.93,38.33 	"/>
</g>
<g id="XMLID_34_">
	<path id="XMLID_29_" class="st1" d="M52.905,104c-18.522,0-36.461-9.951-45.766-27.403c-0.37-0.697-0.719-1.386-1.052-2.083
		l13.277-6.334c0.24,0.504,0.493,1.005,0.758,1.502C29.73,87.704,52.217,94.558,70.251,84.94
		c9.688-5.166,16.55-14.297,18.824-25.053l14.391,3.045c-3.176,15.019-12.761,27.771-26.297,34.989
		C69.438,102.044,61.112,104,52.905,104z"/>
	<polygon id="XMLID_30_" class="st1" points="0.048,78.414 7.622,59.482 26.554,67.056 	"/>
</g>
<text id="XMLID_27_" transform="matrix(1 0 0 1 41.9487 72.7564)" class="st2 st3 st4">0</text>
</svg>
