<?xml version="1.0" encoding="utf-8"?>
<!-- Generator: Adobe Illustrator 19.0.0, SVG Export Plug-In . SVG Version: 6.00 Build 0)  -->
<svg version="1.1" id="Layer_1" xmlns="http://www.w3.org/2000/svg" xmlns:xlink="http://www.w3.org/1999/xlink" x="0px" y="0px"
	 viewBox="0 0 120 108" style="enable-background:new 0 0 120 108;" xml:space="preserve">
<style type="text/css">
	.st0{fill:#D19249;}
	.st1{fill:#007239;}
	.st2{fill:#6BA537;}
	.st3{fill:#FFFFFF;}
</style>
<path id="XMLID_5_" class="st0" d="M27.933,79.409c-1.128,0-2.234-0.087-3.328-0.217c0.578,5.433,1.768,20.585-1.863,28.506h5.101
	h5.279c-3.631-7.922-2.441-23.073-1.863-28.506C30.167,79.323,29.061,79.409,27.933,79.409z"/>
<path id="XMLID_4_" class="st0" d="M90.44,79.409c-1.128,0-2.234-0.087-3.328-0.217c0.578,5.433,1.768,20.585-1.863,28.506h5.101
	h5.279c-3.631-7.922-2.441-23.073-1.863-28.506C92.674,79.323,91.568,79.409,90.44,79.409z"/>
<path id="XMLID_3_" class="st1" d="M27.873,87.472c0,0,27.873-44.205,27.873-59.599c0-14.266-10.723-26.009-24.546-27.656
	C30.108,0.087,29.001,0,27.873,0c-1.128,0-2.234,0.087-3.328,0.217C10.723,1.864,0,13.608,0,27.873
	C0,43.267,27.873,87.472,27.873,87.472z"/>
<path id="XMLID_2_" class="st2" d="M90.44,0c0,0-27.873,44.205-27.873,59.599c0,14.266,10.723,26.009,24.546,27.656
	c1.093,0.13,2.199,0.217,3.328,0.217s2.234-0.087,3.328-0.217c13.822-1.648,24.546-13.391,24.546-27.656
	C118.313,44.205,90.44,0,90.44,0z"/>
<circle id="XMLID_1_" class="st3" cx="27.993" cy="28.475" r="15.413"/>
</svg>
