<?xml version="1.0" encoding="utf-8"?>
<!-- Generator: Adobe Illustrator 19.0.0, SVG Export Plug-In . SVG Version: 6.00 Build 0)  -->
<svg version="1.1" id="Layer_1" xmlns="http://www.w3.org/2000/svg" xmlns:xlink="http://www.w3.org/1999/xlink" x="0px" y="0px"
	 viewBox="0 0 87 133" style="enable-background:new 0 0 87 133;" xml:space="preserve">
<style type="text/css">
	.st0{fill:#D19249;}
	.st1{fill:#6BA537;}
	.st2{fill:#007239;}
</style>
<path id="XMLID_4_" class="st0" d="M31.795,99.902c-1.287,0-2.549-0.099-3.796-0.247c0.659,6.198,2.017,23.481-2.125,32.517h5.819
	h6.022c-4.142-9.036-2.784-26.319-2.125-32.517C34.344,99.803,33.082,99.902,31.795,99.902z"/>
<path id="XMLID_3_" class="st1" d="M31.795,0.121C31.795,0.121,0,50.546,0,68.106c0,16.273,12.232,29.669,28,31.548
	c1.247,0.149,2.509,0.247,3.796,0.247c1.287,0,2.549-0.099,3.796-0.247c15.767-1.879,28-15.275,28-31.548
	C63.591,50.546,31.795,0.121,31.795,0.121z"/>
<path id="XMLID_2_" class="st0" d="M60.576,106.396c-1.028,0-2.036-0.079-3.032-0.198c0.527,4.951,1.611,18.756-1.697,25.973h4.648
	h4.81c-3.308-7.218-2.224-21.023-1.697-25.973C62.612,106.317,61.604,106.396,60.576,106.396z"/>
<path id="XMLID_1_" class="st2" d="M60.576,26.696c0,0-25.397,40.277-25.397,54.303c0,12.998,9.771,23.698,22.365,25.199
	c0.996,0.119,2.004,0.198,3.032,0.198s2.036-0.079,3.032-0.198c12.594-1.501,22.365-12.201,22.365-25.199
	C85.972,66.973,60.576,26.696,60.576,26.696z"/>
</svg>
