<svg id="16ef4ebb-8165-4d17-a128-b4e668b59d19" data-name="Layer 1" xmlns="http://www.w3.org/2000/svg" viewBox="0 0 312.3 82.22"><defs><style>.\37 34a94da-8f27-45da-b9b6-4df69532f2f7{fill:#fff;}</style></defs><title>logo</title><g id="58bef8f3-5f78-4c92-bac7-7aaa04c809af" data-name="&lt;Group&gt;"><g id="941a00a4-0d81-415a-b0b1-76ad559566ff" data-name="&lt;Group&gt;"><g id="252c1a8c-e59c-4118-a5c5-019998eff1ed" data-name="&lt;Group&gt;"><path id="27b0fb3a-87f5-4896-b397-76fb4dcc68a1" data-name="&lt;Path&gt;" class="734a94da-8f27-45da-b9b6-4df69532f2f7" d="M131.78,48c0,1.22,0,6.06.12,7.12a0.73,0.73,0,0,1-.77.45c-0.49-.69-1.67-2.11-5.21-6.14l-9.44-10.74c-1.1-1.26-3.86-4.6-4.72-5.49h-0.08a10.24,10.24,0,0,0-.2,2.65v8.87c0,1.91.08,7.2,0.73,8.42a2.74,2.74,0,0,0,2.07.77L115.54,54a0.75,0.75,0,0,1-.07,1c-1.84-.08-3.26-0.12-4.77-0.12-1.71,0-2.81,0-4.23.12a0.76,0.76,0,0,1-.08-1l1.1-.12a2.06,2.06,0,0,0,1.79-.81c0.57-1.46.53-6.43,0.53-8.38V33a3.73,3.73,0,0,0-.89-2.93,4.46,4.46,0,0,0-2.53-1L105.7,29a0.71,0.71,0,0,1,.08-1c1.71,0.12,3.86.12,4.59,0.12a12.86,12.86,0,0,0,1.87-.12c0.81,2.07,5.66,7.44,7,8.95l3.95,4.44c2.77,3.17,4.8,5.41,6.72,7.36H130a4.13,4.13,0,0,0,.16-1.71v-8.7c0-1.92,0-7.21-.81-8.42-0.24-.37-0.89-0.61-2.52-0.82L126.09,29a0.67,0.67,0,0,1,.08-1c1.87,0.08,3.25.12,4.81,0.12,1.74,0,2.81,0,4.19-.12a0.71,0.71,0,0,1,.08,1l-0.57.08c-1.3.2-2.12,0.53-2.28,0.85-0.7,1.46-.61,6.51-0.61,8.39V48h0Z"/><path id="4f1cb988-f112-49f8-af93-39d38639ee41" data-name="&lt;Compound Path&gt;" class="734a94da-8f27-45da-b9b6-4df69532f2f7" d="M143.33,46.51a1,1,0,0,0,.69-1.18l0-1.87c0-1.51-.44-3.54-3-3.54-1.14,0-2.52.57-2.6,1.83a1.84,1.84,0,0,1-.41,1.38,4.36,4.36,0,0,1-2.32.77,0.51,0.51,0,0,1-.57-0.57c0-2.12,4.6-5,7.57-5S147.12,40,147,43.09l-0.24,7.08c-0.08,1.87.29,3.54,1.87,3.54a2.33,2.33,0,0,0,1-.24,1.75,1.75,0,0,1,.53-0.28,0.46,0.46,0,0,1,.28.53A4.26,4.26,0,0,1,147,55.5a3.25,3.25,0,0,1-2.64-1.26,1.1,1.1,0,0,0-.65-0.57,6.25,6.25,0,0,0-1.59.82,6.06,6.06,0,0,1-2.93,1,4.2,4.2,0,0,1-2.85-.94,3.8,3.8,0,0,1-1.27-2.85c0-1.59.77-2.52,3.38-3.46Zm-2.52,7.16a4.6,4.6,0,0,0,2.48-1,2.38,2.38,0,0,0,.53-1.91l0.08-2.4c0-.45-0.17-0.53-0.41-0.53a8,8,0,0,0-1.67.41c-2.4.82-3.58,1.43-3.58,3a2.45,2.45,0,0,0,2.56,2.44"/><path id="fb67319b-49b7-4c37-9a78-a29e3dc1f7d1" data-name="&lt;Path&gt;" class="734a94da-8f27-45da-b9b6-4df69532f2f7" d="M156.64,40.61c-0.69,0-.73.13-0.73,1V49.2c0,2.36.29,4.51,3,4.51a3.12,3.12,0,0,0,1.1-.2c0.37-.12.9-0.57,1-0.57a0.54,0.54,0,0,1,.41.69,5.64,5.64,0,0,1-4.27,1.87c-3.5,0-4.23-2-4.23-4.4V41.79c0-1.1,0-1.18-.86-1.18H150.9a0.67,0.67,0,0,1-.12-0.85,8.1,8.1,0,0,0,2.6-1.26,10,10,0,0,0,1.71-2.4,0.77,0.77,0,0,1,.85.2v1.83c0,0.73,0,.77.73,0.77h4.52a1.3,1.3,0,0,1,0,1.71h-4.6Z"/><path id="247986e8-3a27-408d-a95d-d16df4d09ad3" data-name="&lt;Path&gt;" class="734a94da-8f27-45da-b9b6-4df69532f2f7" d="M167.47,48.95c0,2.81.68,4.68,3.78,4.68a5.3,5.3,0,0,0,3.29-1.22,2.8,2.8,0,0,0,.82-2.36V43.37c0-2.64-.28-2.73-1.51-3.21L173.32,40a0.55,0.55,0,0,1,0-.89,16.39,16.39,0,0,0,4.76-.73,0.4,0.4,0,0,1,.37.29c-0.08.77-.12,2-0.12,3.54V49c0,3.21.12,4.43,1.26,4.43a7.72,7.72,0,0,0,1.59-.2,0.92,0.92,0,0,1,0,1.18,21.12,21.12,0,0,0-5.33,1.51,0.56,0.56,0,0,1-.49-0.28V54c0-.37-0.12-0.57-0.37-0.57a10.64,10.64,0,0,1-5.62,2.12c-3.58,0-4.92-1.79-4.92-5.09V43.62c0-2.57,0-2.93-1.22-3.46L162.74,40a0.6,0.6,0,0,1,.08-0.89,14.4,14.4,0,0,0,4.36-.73,0.42,0.42,0,0,1,.41.29,30.93,30.93,0,0,0-.12,3.54v6.8Z"/><path id="bdfaf158-2a38-474b-9b06-6b54014ecd10" data-name="&lt;Path&gt;" class="734a94da-8f27-45da-b9b6-4df69532f2f7" d="M185,43.25c0-1.58,0-1.79-1.09-2.52l-0.37-.25a0.56,0.56,0,0,1,0-.74,31.65,31.65,0,0,0,4.11-2A0.31,0.31,0,0,1,188,38V40.4a0.4,0.4,0,0,0,.12.37c1.43-1.18,3-2.44,4.48-2.44A1.69,1.69,0,0,1,194.45,40a1.81,1.81,0,0,1-1.75,1.87,1.55,1.55,0,0,1-.9-0.28,3.34,3.34,0,0,0-1.79-.65,1.8,1.8,0,0,0-1.46.82,6.15,6.15,0,0,0-.53,3.13v5.53c0,2.93.08,3.42,1.63,3.54L191.1,54a0.71,0.71,0,0,1-.08,1c-1.91-.08-3.09-0.12-4.52-0.12s-2.69,0-3.74.12a0.71,0.71,0,0,1-.08-1l0.77-.12C185,53.66,185,53.3,185,50.37V43.25h0Z"/><path id="8fac1268-be17-48b5-b224-9cb67da3a73b" data-name="&lt;Compound Path&gt;" class="734a94da-8f27-45da-b9b6-4df69532f2f7" d="M198.6,44.51c-1.06,0-1.1.08-1.1,1.1,0,4.11,2.41,7.61,6.76,7.61a4.38,4.38,0,0,0,3.74-2,0.54,0.54,0,0,1,.73.49,7.1,7.1,0,0,1-6.39,3.78,7.28,7.28,0,0,1-5.9-2.69,8.65,8.65,0,0,1-1.71-5.29c0-5,3.3-9.19,8.18-9.19,3.5,0,5.78,2.4,5.78,4.84a2.52,2.52,0,0,1-.16,1.06c-0.12.24-.69,0.28-2.4,0.28H198.6Zm2.52-1.22c3,0,3.91-.16,4.23-0.41a0.81,0.81,0,0,0,.25-0.77c0-1.14-.77-2.56-3.13-2.56S198,41.75,198,43.09c0,0.08,0,.2.28,0.2h2.89Z"/><path id="c0b962b6-1e82-4daf-8af1-85e4eef9d463" data-name="&lt;Compound Path&gt;" class="734a94da-8f27-45da-b9b6-4df69532f2f7" d="M213,33.36c0-3-.16-3.74-2-3.95l-1.3-.12a0.64,0.64,0,0,1,0-1c2.2-.21,5-0.33,8.75-0.33a15.5,15.5,0,0,1,6.83,1.14,5.34,5.34,0,0,1,3.08,5.09c0,2.93-1.71,4.44-4.14,5.58,0,0.41.33,0.53,0.77,0.61a6.73,6.73,0,0,1,5.46,6.8c0,4.71-3.5,7.89-10.83,7.89-1.17,0-3.17-.12-4.88-0.12s-3.17.08-4.68,0.12a0.8,0.8,0,0,1-.08-1l0.74-.12C213,53.59,213,53.1,213,48.83V33.36h0Zm3.34,5.41c0,1.14,0,1.22,2.11,1.14,4.15-.16,6.39-1.39,6.39-5.21,0-4-3-5.49-6.07-5.49a4.9,4.9,0,0,0-1.87.24c-0.41.12-.57,0.33-0.57,1.05v8.26h0Zm0,9.44c0,1.47.08,3.54,0.85,4.44a4,4,0,0,0,3.22,1.14c3.62,0,6.39-1.62,6.39-5.7,0-3.21-1.63-7-8.1-7-2.2,0-2.35.25-2.35,1.06v6Z"/><path id="93a4ad87-eb04-45da-9ea5-9aa6e179790c" data-name="&lt;Path&gt;" class="734a94da-8f27-45da-b9b6-4df69532f2f7" d="M234.73,43.25c0-1.58,0-1.79-1.1-2.52l-0.37-.25a0.56,0.56,0,0,1,0-.74,31.15,31.15,0,0,0,4.11-2,0.32,0.32,0,0,1,.33.28V40.4a0.4,0.4,0,0,0,.12.37c1.43-1.18,3-2.44,4.48-2.44A1.69,1.69,0,0,1,244.17,40a1.8,1.8,0,0,1-1.75,1.87,1.53,1.53,0,0,1-.89-0.28,3.32,3.32,0,0,0-1.8-.65,1.8,1.8,0,0,0-1.46.82,6.15,6.15,0,0,0-.53,3.13v5.53c0,2.93.08,3.42,1.63,3.54L240.83,54a0.71,0.71,0,0,1-.08,1c-1.91-.08-3.09-0.12-4.52-0.12s-2.68,0-3.74.12a0.72,0.72,0,0,1-.07-1l0.77-.12c1.51-.25,1.54-0.61,1.54-3.54V43.25h0Z"/><path id="24f5dd47-4e1f-43ad-af4b-cfee443d3e6f" data-name="&lt;Compound Path&gt;" class="734a94da-8f27-45da-b9b6-4df69532f2f7" d="M247.43,43.25c0-1.59,0-1.79-1.1-2.52L246,40.49a0.56,0.56,0,0,1,0-.74,28.12,28.12,0,0,0,4.19-2,0.38,0.38,0,0,1,.41.25c-0.08,1.42-.16,3.38-0.16,5v7.32c0,2.93.08,3.34,1.54,3.54L252.84,54a0.71,0.71,0,0,1-.08,1c-1.22-.08-2.4-0.12-3.82-0.12s-2.68,0-3.82.12a0.71,0.71,0,0,1-.08-1l0.85-.12c1.51-.21,1.55-0.61,1.55-3.54V43.25Zm3.33-13.18a2.1,2.1,0,0,1-4.19.08,2.1,2.1,0,0,1,2.2-2.16,2,2,0,0,1,2,2.08"/><path id="28b7b8d4-9fbe-4140-883b-34e976a24f13" data-name="&lt;Compound Path&gt;" class="734a94da-8f27-45da-b9b6-4df69532f2f7" d="M270.13,49c0,3.21,0,4.72,1.18,4.72a6.49,6.49,0,0,0,1.74-.41,1,1,0,0,1,0,1.3,30.72,30.72,0,0,0-5.38,1.3,0.38,0.38,0,0,1-.44-0.33V54.89a4.33,4.33,0,0,0-.09-1.26H267a8.47,8.47,0,0,1-5.13,1.87,7.48,7.48,0,0,1-7.53-7.82c0-5.69,4.31-9.36,9.85-9.36a8.38,8.38,0,0,1,2.73.37c0.2,0,.24-0.24.24-0.57V32c0-2.4,0-2.65-1.26-3.38l-0.41-.24a0.62,0.62,0,0,1,0-.81,28.85,28.85,0,0,0,4.4-1.71,0.46,0.46,0,0,1,.41.24c0,1.22-.12,3.25-0.12,5V49h0Zm-3-6.1a2.38,2.38,0,0,0-.45-1.59,4.22,4.22,0,0,0-3.42-1.71c-3.71,0-5.62,3.21-5.62,6.75,0,3.7,2.08,7.2,6.07,7.2a5,5,0,0,0,3.13-1.14,2.42,2.42,0,0,0,.29-1.5v-8h0Z"/><path id="5ca7dc2d-6e33-4dcf-9512-6e8903591e08" data-name="&lt;Compound Path&gt;" class="734a94da-8f27-45da-b9b6-4df69532f2f7" d="M290.93,39.8c0.44,0.2.36,1.59-.25,1.67h-2.92a18.27,18.27,0,0,1,.08,2.08c0,2.81-1.67,6.47-6.83,6.47-0.73,0-1.31-.08-1.8-0.12-0.49.28-1.79,1.05-1.79,2.24,0,0.93.93,1.71,2.85,1.71,1.38,0,3-.13,4.84-0.13,2.28,0,5.7.41,5.7,4.48,0,4.44-4.84,7.69-10.13,7.69-5,0-6.76-2.68-6.76-4.72a2.3,2.3,0,0,1,.45-1.51c0.7-.73,1.83-1.79,2.77-2.72,0.37-.37.7-0.73,0.33-1a3.78,3.78,0,0,1-3-3.21,1.07,1.07,0,0,1,.61-0.7,12.16,12.16,0,0,0,2.16-1.87,1.57,1.57,0,0,0,.41-0.77,5.52,5.52,0,0,1-3-4.92,6.36,6.36,0,0,1,6.63-6.14,10.12,10.12,0,0,1,3.91.81,4.83,4.83,0,0,0,2.48.65h3.3Zm-8.51,16.44a8.91,8.91,0,0,0-3.5.45,4.17,4.17,0,0,0-2,3.41c0,2.2,1.75,4,5.46,4s6-2,6-4.35c0-2.48-1.71-3.54-4.64-3.54h-1.38Zm2.52-11.63c0-2.77-1.14-5.09-3.62-5.09-1.95,0-3.42,1.79-3.42,4.56s1.75,4.76,3.71,4.76c2.19,0,3.33-1.75,3.33-4.23"/><path id="de8a2546-9bac-4a4e-bc3a-354c33134c09" data-name="&lt;Compound Path&gt;" class="734a94da-8f27-45da-b9b6-4df69532f2f7" d="M295.2,44.51c-1.07,0-1.1.08-1.1,1.1,0,4.11,2.4,7.61,6.75,7.61a4.4,4.4,0,0,0,3.75-2,0.54,0.54,0,0,1,.73.49,7.12,7.12,0,0,1-6.39,3.78,7.29,7.29,0,0,1-5.9-2.69,8.62,8.62,0,0,1-1.71-5.29c0-5,3.3-9.19,8.18-9.19,3.5,0,5.77,2.4,5.77,4.84a2.47,2.47,0,0,1-.16,1.06c-0.13.24-.7,0.28-2.41,0.28H295.2Zm2.51-1.22c3,0,3.91-.16,4.24-0.41a0.82,0.82,0,0,0,.24-0.77c0-1.14-.77-2.56-3.13-2.56s-4.47,2.2-4.52,3.54c0,0.08,0,.2.28,0.2h2.89Z"/><path id="77a62597-5f13-48fc-953d-b6d029a45e80" data-name="&lt;Compound Path&gt;" class="734a94da-8f27-45da-b9b6-4df69532f2f7" d="M311.5,50.33a2.71,2.71,0,0,1,.8,1.92,2.63,2.63,0,0,1-.8,1.93,2.8,2.8,0,0,1-1.95.81,2.77,2.77,0,0,1-2.73-2.74,2.81,2.81,0,0,1,.83-2,2.64,2.64,0,0,1,1.91-.78,2.68,2.68,0,0,1,2,.82m-0.25.25a2.33,2.33,0,0,0-1.7-.71,2.29,2.29,0,0,0-1.66.68,2.43,2.43,0,0,0-.72,1.71,2.36,2.36,0,0,0,.7,1.67,2.34,2.34,0,0,0,1.66.71,2.42,2.42,0,0,0,1.71-.7,2.29,2.29,0,0,0,.69-1.65,2.34,2.34,0,0,0-.68-1.7m-0.33.92a0.81,0.81,0,0,1-.71.84l0.69,1.42h-0.66l-0.63-1.32H309v1.32h-0.59V50.65h1.17c0.87,0,1.3.29,1.3,0.85M309,51v1h0.49c0.54,0,.79-0.13.79-0.5s-0.25-.53-0.8-0.53H309Z"/></g></g></g><g id="967972f6-86f4-4723-b15f-eafbb7a69ca9" data-name="&lt;Group&gt;"><g id="7468fc0b-7795-4d86-8325-2fcfef3d91f5" data-name="&lt;Group&gt;"><g id="9c984f59-d6ba-4ea6-b642-5ae295b67d04" data-name="&lt;Group&gt;"><path id="3b10364e-d6d5-4247-9fe0-f00ab629644b" data-name="&lt;Compound Path&gt;" class="734a94da-8f27-45da-b9b6-4df69532f2f7" d="M0.62,53s0,0,.06.08c0.66,1.6,2,1.56,3.64,1A41.2,41.2,0,0,0,84,47.69a93.17,93.17,0,0,1,16.69,6.79v-5C93.87,46.82,55.12,28.54.62,53Zm79.94-6.19,0.21,0a37.83,37.83,0,0,1-73.29,6c1.71-.66,3.39-1.1,4.53-0.14,2.35,2,4.07,4,7.1,3s3.71-4.65,6.79-3.93,3.76,8.91,11.49,7.68c4.42-.71,6.1-8.39,9.72-8.35s4.91,9.09,14.7,9.27C73.29,60.66,73.94,45.5,80.56,46.83Z"/><path id="17923d09-3a0e-4e6e-b396-8e3899aca450" data-name="&lt;Path&gt;" class="734a94da-8f27-45da-b9b6-4df69532f2f7" d="M35.35,38.55c3.5-.78,7-1.55,10.5-2.08V27.34c-3.07,2.71-6.22-2.25-10.5-3V38.55Z"/><path id="e6894a9f-159a-4b07-b228-7639eee1fbc9" data-name="&lt;Path&gt;" class="734a94da-8f27-45da-b9b6-4df69532f2f7" d="M24.93,41.27Q29.12,40,33.35,39V24.15c-7-.3-8.27,4.74-8.41,6.81v10.3Z"/><path id="53cb1ebc-c6fd-430f-b943-4a01ff2350e9" data-name="&lt;Path&gt;" class="734a94da-8f27-45da-b9b6-4df69532f2f7" d="M15,34.45V44.81c1.66-.62,4.31-1.67,8-2.82V34.91C20.71,36.86,18.39,33.93,15,34.45Z"/><path id="d1d9f441-c777-49f2-90d8-8a722a618041" data-name="&lt;Path&gt;" class="734a94da-8f27-45da-b9b6-4df69532f2f7" d="M47.85,24.06V36.19a130.77,130.77,0,0,1,13-1.1v-20C51.47,13.48,47.85,22.15,47.85,24.06Z"/><path id="111c2774-9a5b-433c-84b7-1bf85ebb2af6" data-name="&lt;Path&gt;" class="734a94da-8f27-45da-b9b6-4df69532f2f7" d="M62.89,15.55V35.1a108.28,108.28,0,0,1,14.53.72C76.92,34.36,74.11,20.21,62.89,15.55Z"/><path id="5d426f20-94cc-4aab-8c7a-4772b23d65e1" data-name="&lt;Path&gt;" class="734a94da-8f27-45da-b9b6-4df69532f2f7" d="M13,35c-5.46,2.48-2.14,8.21-6,10.43a9.56,9.56,0,0,1-1,.45,29.68,29.68,0,0,1-.38-4.64A37.83,37.83,0,0,1,81,36.39c1.15,0.19,2.31.4,3.47,0.64A41.2,41.2,0,1,0,2.8,47.94C1,48.89-.51,50.14.17,51.85A99.71,99.71,0,0,1,13,45.58V35h0Z"/></g></g></g></svg>