<?xml version="1.0" encoding="utf-8"?>
<!-- Generator: Adobe Illustrator 19.2.1, SVG Export Plug-In . SVG Version: 6.00 Build 0)  -->
<svg version="1.1" id="Layer_1" xmlns="http://www.w3.org/2000/svg" xmlns:xlink="http://www.w3.org/1999/xlink" x="0px" y="0px"
	 viewBox="0 0 35 33.7" style="enable-background:new 0 0 35 33.7;" xml:space="preserve">
<style type="text/css">
	.st0{fill:#FFFFFF;}
</style>
<g id="XMLID_11_">
	<g id="XMLID_279_">
		<path id="XMLID_291_" class="st0" d="M0,0v33.7h35V0H0z M13.4,16.8c0,0.2,0,0.4-0.1,0.7l6.8,3.2c0.7-0.7,1.7-1.2,2.8-1.2
			c2.1,0,3.8,1.6,3.8,3.6s-1.7,3.6-3.8,3.6c-2.1,0-3.8-1.6-3.8-3.6c0,0,0,0,0,0l-7.2-3.4c-0.6,0.5-1.5,0.8-2.3,0.8
			c-2.1,0-3.8-1.6-3.8-3.6s1.7-3.6,3.8-3.6c1.1,0,2,0.4,2.7,1.1l6.8-3.4c0-0.1,0-0.3,0-0.4c0-2,1.7-3.6,3.8-3.6s3.8,1.6,3.8,3.6
			s-1.7,3.6-3.8,3.6c-1,0-1.8-0.3-2.5-0.9l-7,3.5C13.4,16.7,13.4,16.8,13.4,16.8z"/>
	</g>
</g>
</svg>
