<?xml version="1.0" encoding="utf-8"?>
<!-- Generator: Adobe Illustrator 19.2.1, SVG Export Plug-In . SVG Version: 6.00 Build 0)  -->
<svg version="1.1" id="Layer_1" xmlns="http://www.w3.org/2000/svg" xmlns:xlink="http://www.w3.org/1999/xlink" x="0px" y="0px"
	 viewBox="0 0 35 33.7" style="enable-background:new 0 0 35 33.7;" xml:space="preserve">
<style type="text/css">
	.st0{fill:#FFFFFF;}
</style>
<g>
	<path class="st0" d="M0,0v33.7h35V0H0z M26.5,12.2C26.8,18.7,21.9,26,13.3,26c-2.6,0-5.1-0.8-7.1-2.1c2.5,0.3,4.9-0.4,6.9-1.9
		c-2,0-3.7-1.4-4.3-3.2c0.7,0.1,1.4,0.1,2.1-0.1c-2.2-0.4-3.8-2.5-3.7-4.6c0.6,0.3,1.3,0.6,2.1,0.6c-2.1-1.4-2.7-4.1-1.4-6.2
		c2.3,2.8,5.7,4.7,9.6,4.9c-0.7-2.9,1.5-5.7,4.5-5.7c1.3,0,2.5,0.6,3.4,1.5c1.1-0.2,2.1-0.6,2.9-1.1c-0.3,1.1-1.1,2-2,2.6
		c0.9-0.1,1.8-0.4,2.7-0.7C28.2,10.7,27.4,11.6,26.5,12.2z"/>
</g>
</svg>
